<?xml version="1.0" encoding="utf-8"?>
<!-- Generator: Adobe Illustrator 18.1.1, SVG Export Plug-In . SVG Version: 6.00 Build 0)  -->
<svg version="1.1" id="Layer_1" xmlns="http://www.w3.org/2000/svg" xmlns:xlink="http://www.w3.org/1999/xlink" x="0px" y="0px"
	 viewBox="0 0 595.3 841.9" enable-background="new 0 0 595.3 841.9" xml:space="preserve">
<g>
	<path d="M299.8,288.1c20,0.7,40.7,1.4,61.3,2.1c34,1.2,67.9,2.5,101.9,3.7c27.5,1,54.9,2,82.4,3c5.2,0.2,7.5,2.6,7.3,8
		c-1.3,34.1-2.7,68.2-4,102.3c-0.2,4.5-2.4,6.7-6.7,7.9c-37.8,10.9-73.8,25.6-106.7,47.6c-16.9,11.3-32,24.5-43.9,41.1
		c-18.5,25.8-30.4,54.5-36.5,85.6c-1.5,7.6-2.4,8.5-9.9,9.2c-30.8,2.9-61.5,2.8-92.3,0c-7.3-0.7-8.4-1.7-8.9-9.1
		c-2.3-29-12.5-54.9-30.3-77.9c-40.4-52.3-94.6-82-158-96.8c-4.1-1-6.4-3-6.5-7.5c-0.5-16.5-1.2-33-1.8-49.5
		c-0.6-17.1-1.3-34.2-1.9-51.4c-0.3-7.4,1.7-9.4,9.2-9.6c51.6-1.8,103.2-3.7,154.9-5.6C239.3,290.2,269.2,289.2,299.8,288.1z
		 M256.2,585.8c27.2,3.2,53.9,3,80.7,0.8c4.9-0.4,6.2-2.4,7.2-6.7c5.2-23,13.1-45.2,25.6-65.2c6.4-10.3,8.6-21,9.3-32.5
		c2.9-46.6-4.8-91.9-17.6-136.5c-0.8-2.7-2-3.7-4.8-3.7c-37.8,0.1-75.6,0-113.5,0.2c-1.5,0-3.7,1.9-4.3,3.4c-1.8,4.8-3,9.9-4.3,14.8
		c-10.3,40-16.5,80.6-13.4,122.1c0.6,7.8,0.7,16.9,4.7,23.1C241.7,530.1,253.1,556.1,256.2,585.8z M225,342.1
		c-54.7,2.4-109.9,4.8-165.4,7.3c0.6,17.8,1,34.4,1.8,51c0.1,1.3,2.6,3.1,4.3,3.5c42.3,10.5,80.6,29.3,114.8,56.2
		c9.4,7.3,18.1,15.5,26.2,22.4c1.4-22.7,1.7-46.3,4.8-69.6C214.5,389.4,220.2,366.5,225,342.1z M391.6,483c1.6-1.5,2.3-2.2,3-2.8
		c9.9-8.4,19.2-17.6,29.7-25.1c32.6-23.2,69.1-38.4,107.1-50c3.7-1.1,4.9-2.7,5-6.5c0.4-14.5,1.1-29,1.7-43.4c0.1-1.8,0-3.5,0-5.9
		c-55-2.4-109.4-4.8-164.6-7.3C386.8,388.5,394.2,434.6,391.6,483z M539.1,309.4c-12.2-0.5-24.5-1-36.8-1.4
		c-44.1-1.6-88.2-3.2-132.4-4.7c-26.3-0.9-52.6-2.7-78.9-2c-75.4,2-150.8,5.1-226.3,7.8c-2.1,0.1-4.2,0.4-5.9,0.5c0,9.4,0,18.3,0,28
		c160.4-11.2,319.9-11.3,480.2,0C539.1,327.7,539.1,318.9,539.1,309.4z"/>
	<path fill="#FFFFFF" d="M256.2,585.8c-3.1-29.7-14.5-55.7-30.4-80.3c-4-6.1-4.1-15.2-4.7-23.1c-3.1-41.5,3.1-82,13.4-122.1
		c1.3-5,2.5-10,4.3-14.8c0.6-1.5,2.8-3.4,4.3-3.4c37.8-0.2,75.6-0.1,113.5-0.2c2.8,0,4,1,4.8,3.7c12.9,44.6,20.5,89.9,17.6,136.5
		c-0.7,11.5-2.9,22.3-9.3,32.5c-12.5,20-20.4,42.2-25.6,65.2c-1,4.3-2.3,6.3-7.2,6.7C310.1,588.8,283.4,589,256.2,585.8z"/>
</g>
</svg>
